<svg xmlns="http://www.w3.org/2000/svg" viewBox="0 0 800 500">
  <style>text{font-family:"Yu Gothic UI","Hiragino Maru Gothic ProN",Meiryo,sans-serif;font-weight:800}</style>
  <rect width="800" height="500" rx="24" fill="#F6F2FF"/>
  <rect x="40" y="30" width="720" height="440" rx="20" fill="#fff" stroke="#DDF1FF" stroke-width="5"/>
  <path d="M60 30h680a20 20 0 0 1 20 20v36H40V50a20 20 0 0 1 20-20z" fill="#DDF1FF"/>
  <circle cx="72" cy="58" r="8" fill="#FF77AA"/><circle cx="98" cy="58" r="8" fill="#A98BFF"/><circle cx="124" cy="58" r="8" fill="#5BB8F5"/>
  <rect x="160" y="42" width="440" height="32" rx="16" fill="#fff"/><text x="182" y="64" font-size="18" fill="#6A6683">localhost:7878</text>
  <rect x="150" y="116" width="400" height="320" rx="26" fill="#FFF8FB" stroke="#FFE4EF" stroke-width="4"/>
  <text x="350" y="180" text-anchor="middle" font-size="26" fill="#34304A">iPhoneの画面を、ここに映す</text>
  <rect x="220" y="236" width="260" height="84" rx="42" fill="#FF77AA" stroke="#F2518F" stroke-width="3"/>
  <text x="350" y="289" text-anchor="middle" font-size="30" fill="#fff">ミラーリング開始</text>
  <text x="350" y="380" text-anchor="middle" font-size="16" fill="#6A6683">アカウント不要・クラウド不要</text>
  <path d="M590 190L520 262" stroke="#5BB8F5" stroke-width="6" stroke-linecap="round"/>
  <path d="M470 300l-6 54 20-14 12 28 12-6-12-28 24-3z" fill="#34304A" stroke="#fff" stroke-width="3"/>
  <g transform="translate(560 130)"><rect width="190" height="56" rx="28" fill="#5BB8F5"/><text x="95" y="37" text-anchor="middle" font-size="24" fill="#fff">ここをクリック</text></g>
</svg>
